# xmcd
#
# Track frame offsets:
#	192
#	12985
#	26485
#	40617
#	63130
#	79772
#	88582
#	98577
#	109277
#	119492
#	140862
#
# Disc length: 2081 seconds
#
# Revision: 1
# Processed by: cddbd v1.5.2PL0 Copyright (c) Steve Scherf et al.
# Submitted via: EasyCDDAExtractor 15.2.5.1
#
DISCID=88081f0b
DTITLE=Big Bill Broonzy - Big Bill Broonzy Sings Folk Songs
DYEAR=1962
DGENRE=Blues
TTITLE0=Backwater Blues
TTITLE1=This Train
TTITLE2=I Don't Want No Woman (To Try to Be My Boss)
TTITLE3=Martha
TTITLE4=Tell Me Who
TTITLE5=Bill Bailey
TTITLE6=Alberta
TTITLE7=Goin' Down this Road
TTITLE8=Tell Me What Kind of Man Jesus Is
TTITLE9=John Henry
TTITLE10=Glory of Love
EXTD=
EXTT0=
EXTT1=
EXTT2=
EXTT3=
EXTT4=
EXTT5=
EXTT6=
EXTT7=
EXTT8=
EXTT9=
EXTT10=
PLAYORDER=
